<mxfile host="65bd71144e">
    <diagram id="Jvr-ZWMHcteV5UioUWNf" name="Page-1">
        <mxGraphModel dx="1035" dy="476" grid="1" gridSize="10" guides="1" tooltips="1" connect="1" arrows="1" fold="1" page="1" pageScale="1" pageWidth="827" pageHeight="1169" background="#ffffff" math="0" shadow="0">
            <root>
                <mxCell id="0"/>
                <mxCell id="1" parent="0"/>
                <mxCell id="25" style="edgeStyle=none;html=1;fontSize=11;fontColor=#000000;fillColor=#000000;strokeColor=#000000;" parent="1" source="23" edge="1">
                    <mxGeometry relative="1" as="geometry">
                        <mxPoint x="355" y="330" as="targetPoint"/>
                    </mxGeometry>
                </mxCell>
                <mxCell id="30" style="edgeStyle=none;html=1;entryX=0;entryY=0.5;entryDx=0;entryDy=0;strokeColor=#000000;fontSize=11;fontColor=#000000;fillColor=#000000;" parent="1" source="16" target="7" edge="1">
                    <mxGeometry relative="1" as="geometry"/>
                </mxCell>
                <mxCell id="45" style="edgeStyle=none;html=1;exitX=0;exitY=0.5;exitDx=0;exitDy=0;entryX=1;entryY=0.5;entryDx=0;entryDy=0;strokeColor=#000000;fontSize=11;fontColor=#000000;fillColor=#000000;" parent="1" source="37" target="3" edge="1">
                    <mxGeometry relative="1" as="geometry"/>
                </mxCell>
                <mxCell id="50" style="edgeStyle=orthogonalEdgeStyle;html=1;strokeColor=#000000;fontSize=11;fontColor=#000000;fillColor=#000000;entryX=1;entryY=0.75;entryDx=0;entryDy=0;" parent="1" source="41" target="122" edge="1">
                    <mxGeometry relative="1" as="geometry">
                        <mxPoint x="620" y="420" as="targetPoint"/>
                        <Array as="points">
                            <mxPoint x="675" y="420"/>
                        </Array>
                    </mxGeometry>
                </mxCell>
                <mxCell id="51" style="edgeStyle=orthogonalEdgeStyle;html=1;entryX=1;entryY=0.25;entryDx=0;entryDy=0;strokeColor=#000000;fontSize=11;fontColor=#000000;fillColor=#000000;exitX=0.5;exitY=1;exitDx=0;exitDy=0;" parent="1" source="3" target="11" edge="1">
                    <mxGeometry relative="1" as="geometry"/>
                </mxCell>
                <mxCell id="52" style="edgeStyle=orthogonalEdgeStyle;html=1;entryX=1;entryY=0.75;entryDx=0;entryDy=0;strokeColor=#000000;fontSize=11;fontColor=#000000;fillColor=#000000;exitX=0.5;exitY=0;exitDx=0;exitDy=0;" parent="1" source="47" target="11" edge="1">
                    <mxGeometry relative="1" as="geometry"/>
                </mxCell>
                <mxCell id="59" style="edgeStyle=none;html=1;entryX=0;entryY=0.5;entryDx=0;entryDy=0;strokeColor=#000000;fontSize=11;fontColor=#000000;fillColor=#000000;" parent="1" source="7" target="3" edge="1">
                    <mxGeometry relative="1" as="geometry"/>
                </mxCell>
                <mxCell id="61" style="html=1;entryX=0.329;entryY=0.001;entryDx=0;entryDy=0;strokeColor=#000000;fontSize=11;fontColor=#000000;fillColor=#000000;edgeStyle=orthogonalEdgeStyle;entryPerimeter=0;" parent="1" source="57" target="16" edge="1">
                    <mxGeometry relative="1" as="geometry">
                        <Array as="points">
                            <mxPoint x="600" y="230"/>
                            <mxPoint x="600" y="210"/>
                            <mxPoint x="240" y="210"/>
                            <mxPoint x="240" y="320"/>
                        </Array>
                    </mxGeometry>
                </mxCell>
                <mxCell id="85" style="edgeStyle=orthogonalEdgeStyle;html=1;entryX=0;entryY=0.5;entryDx=0;entryDy=0;strokeColor=#000000;fontSize=11;fontColor=#000000;fillColor=#000000;" parent="1" source="16" target="54" edge="1">
                    <mxGeometry relative="1" as="geometry">
                        <Array as="points">
                            <mxPoint x="230" y="200"/>
                            <mxPoint x="600" y="200"/>
                            <mxPoint x="600" y="180"/>
                        </Array>
                    </mxGeometry>
                </mxCell>
                <mxCell id="93" style="edgeStyle=orthogonalEdgeStyle;html=1;strokeColor=#000000;fontSize=11;fontColor=#000000;fillColor=#000000;entryX=0.5;entryY=0;entryDx=0;entryDy=0;exitX=0.665;exitY=-0.002;exitDx=0;exitDy=0;exitPerimeter=0;" parent="1" source="16" target="90" edge="1">
                    <mxGeometry relative="1" as="geometry">
                        <mxPoint x="530" y="260" as="targetPoint"/>
                        <Array as="points">
                            <mxPoint x="260" y="230"/>
                            <mxPoint x="530" y="230"/>
                        </Array>
                        <mxPoint x="260" y="310" as="sourcePoint"/>
                    </mxGeometry>
                </mxCell>
                <mxCell id="98" style="edgeStyle=orthogonalEdgeStyle;html=1;entryX=0.5;entryY=1;entryDx=0;entryDy=0;strokeColor=#000000;fontSize=11;fontColor=#000000;fillColor=#000000;" parent="1" source="96" target="16" edge="1">
                    <mxGeometry relative="1" as="geometry"/>
                </mxCell>
                <mxCell id="99" style="edgeStyle=orthogonalEdgeStyle;html=1;strokeColor=#000000;fontSize=11;fontColor=#000000;fillColor=#000000;entryX=0.999;entryY=0.825;entryDx=0;entryDy=0;entryPerimeter=0;" parent="1" source="11" edge="1" target="16">
                    <mxGeometry relative="1" as="geometry">
                        <mxPoint x="270.0000000000001" y="370" as="targetPoint"/>
                        <Array as="points">
                            <mxPoint x="300" y="410"/>
                            <mxPoint x="300" y="370"/>
                            <mxPoint x="280" y="370"/>
                        </Array>
                    </mxGeometry>
                </mxCell>
                <mxCell id="103" style="edgeStyle=orthogonalEdgeStyle;html=1;entryX=-0.006;entryY=0.839;entryDx=0;entryDy=0;strokeColor=#000000;fontSize=11;fontColor=#000000;fillColor=#000000;entryPerimeter=0;" parent="1" source="100" target="16" edge="1">
                    <mxGeometry relative="1" as="geometry">
                        <Array as="points">
                            <mxPoint x="190" y="530"/>
                            <mxPoint x="190" y="370"/>
                        </Array>
                    </mxGeometry>
                </mxCell>
                <mxCell id="106" value="" style="group" parent="1" vertex="1" connectable="0">
                    <mxGeometry x="620" y="510" width="110" height="40" as="geometry"/>
                </mxCell>
                <mxCell id="100" value="" style="rounded=0;whiteSpace=wrap;html=1;fillColor=#E6E6E6;shadow=0;strokeColor=#6666FF;container=0;" parent="106" vertex="1">
                    <mxGeometry width="110" height="40" as="geometry"/>
                </mxCell>
                <mxCell id="101" value="&lt;font style=&quot;font-size: 11px;&quot; color=&quot;#000000&quot;&gt;Input trigger&lt;br&gt;&lt;/font&gt;" style="text;html=1;strokeColor=none;fillColor=none;align=center;verticalAlign=middle;whiteSpace=wrap;rounded=0;shadow=1;container=0;" parent="106" vertex="1">
                    <mxGeometry x="13.75" y="10" width="82.5" height="20" as="geometry"/>
                </mxCell>
                <mxCell id="107" value="" style="group" parent="1" vertex="1" connectable="0">
                    <mxGeometry x="620" y="440" width="110" height="40" as="geometry"/>
                </mxCell>
                <mxCell id="146" value="" style="group" parent="107" vertex="1" connectable="0">
                    <mxGeometry y="10" width="110" height="40" as="geometry"/>
                </mxCell>
                <mxCell id="41" value="" style="rounded=0;whiteSpace=wrap;html=1;fillColor=#E6E6E6;shadow=0;strokeColor=#6666FF;container=0;" parent="146" vertex="1">
                    <mxGeometry width="110" height="40" as="geometry"/>
                </mxCell>
                <mxCell id="42" value="&lt;font style=&quot;font-size: 11px;&quot; color=&quot;#000000&quot;&gt;Voltage sense&lt;br&gt;load terminals&lt;br&gt;&lt;/font&gt;" style="text;html=1;strokeColor=none;fillColor=none;align=center;verticalAlign=middle;whiteSpace=wrap;rounded=0;shadow=1;container=0;" parent="146" vertex="1">
                    <mxGeometry x="13.75" y="10" width="82.5" height="20" as="geometry"/>
                </mxCell>
                <mxCell id="108" value="" style="group" parent="1" vertex="1" connectable="0">
                    <mxGeometry x="430" y="450" width="110" height="40" as="geometry"/>
                </mxCell>
                <mxCell id="47" value="" style="rounded=0;whiteSpace=wrap;html=1;fillColor=#E6E6E6;shadow=0;strokeColor=#6666FF;container=0;" parent="108" vertex="1">
                    <mxGeometry width="110" height="40" as="geometry"/>
                </mxCell>
                <mxCell id="48" value="&lt;font style=&quot;font-size: 11px;&quot; color=&quot;#000000&quot;&gt;Differential amplifier&lt;br&gt;&lt;/font&gt;" style="text;html=1;strokeColor=none;fillColor=none;align=center;verticalAlign=middle;whiteSpace=wrap;rounded=0;shadow=1;container=0;" parent="108" vertex="1">
                    <mxGeometry x="13.75" y="10" width="82.5" height="20" as="geometry"/>
                </mxCell>
                <mxCell id="109" value="" style="group" parent="1" vertex="1" connectable="0">
                    <mxGeometry x="430" y="330" width="110" height="40" as="geometry"/>
                </mxCell>
                <mxCell id="3" value="" style="rounded=0;whiteSpace=wrap;html=1;fillColor=#E6E6E6;shadow=0;strokeColor=#6666FF;container=0;" parent="109" vertex="1">
                    <mxGeometry width="110" height="40" as="geometry"/>
                </mxCell>
                <mxCell id="4" value="&lt;font style=&quot;font-size: 11px;&quot; color=&quot;#000000&quot;&gt;CC sink&lt;br&gt;&lt;/font&gt;" style="text;html=1;strokeColor=none;fillColor=none;align=center;verticalAlign=middle;whiteSpace=wrap;rounded=0;shadow=1;container=0;" parent="109" vertex="1">
                    <mxGeometry x="27.5" y="10" width="55" height="20" as="geometry"/>
                </mxCell>
                <mxCell id="110" value="" style="group" parent="1" vertex="1" connectable="0">
                    <mxGeometry x="620" y="330" width="110" height="40" as="geometry"/>
                </mxCell>
                <mxCell id="37" value="" style="rounded=0;whiteSpace=wrap;html=1;fillColor=#E6E6E6;shadow=0;strokeColor=#6666FF;container=0;" parent="110" vertex="1">
                    <mxGeometry width="110" height="40" as="geometry"/>
                </mxCell>
                <mxCell id="38" value="&lt;font style=&quot;font-size: 11px;&quot; color=&quot;#000000&quot;&gt;Main&lt;br&gt;load terminals&lt;br&gt;&lt;/font&gt;" style="text;html=1;strokeColor=none;fillColor=none;align=center;verticalAlign=middle;whiteSpace=wrap;rounded=0;shadow=1;container=0;" parent="110" vertex="1">
                    <mxGeometry x="13.75" y="10" width="82.5" height="20" as="geometry"/>
                </mxCell>
                <mxCell id="112" value="" style="group" parent="1" vertex="1" connectable="0">
                    <mxGeometry x="620" y="210" width="110" height="40" as="geometry"/>
                </mxCell>
                <mxCell id="57" value="" style="rounded=0;whiteSpace=wrap;html=1;fillColor=#E6E6E6;shadow=0;strokeColor=#6666FF;container=0;" parent="112" vertex="1">
                    <mxGeometry width="110" height="40" as="geometry"/>
                </mxCell>
                <mxCell id="58" value="&lt;font style=&quot;font-size: 11px;&quot; color=&quot;#000000&quot;&gt;Rotary&lt;br&gt;encoder and keypad&lt;br&gt;&lt;/font&gt;" style="text;html=1;strokeColor=none;fillColor=none;align=center;verticalAlign=middle;whiteSpace=wrap;rounded=0;shadow=1;container=0;" parent="112" vertex="1">
                    <mxGeometry x="3.75" y="10" width="102.5" height="20" as="geometry"/>
                </mxCell>
                <mxCell id="113" value="" style="group" parent="1" vertex="1" connectable="0">
                    <mxGeometry x="610" y="160" width="120" height="40" as="geometry"/>
                </mxCell>
                <mxCell id="151" value="" style="group" parent="113" vertex="1" connectable="0">
                    <mxGeometry x="10" width="110" height="40" as="geometry"/>
                </mxCell>
                <mxCell id="54" value="" style="rounded=0;whiteSpace=wrap;html=1;fillColor=#E6E6E6;shadow=0;strokeColor=#6666FF;container=0;" parent="151" vertex="1">
                    <mxGeometry width="110" height="40" as="geometry"/>
                </mxCell>
                <mxCell id="55" value="&lt;font style=&quot;font-size: 11px;&quot; color=&quot;#000000&quot;&gt;4x20 LCD&lt;br&gt;&lt;/font&gt;" style="text;html=1;strokeColor=none;fillColor=none;align=center;verticalAlign=middle;whiteSpace=wrap;rounded=0;shadow=1;container=0;" parent="151" vertex="1">
                    <mxGeometry x="27.5" y="10" width="55" height="20" as="geometry"/>
                </mxCell>
                <mxCell id="115" value="" style="group" parent="1" vertex="1" connectable="0">
                    <mxGeometry x="320" y="390" width="70" height="40" as="geometry"/>
                </mxCell>
                <mxCell id="11" value="" style="rounded=0;whiteSpace=wrap;html=1;fillColor=#E6E6E6;shadow=0;strokeColor=#6666FF;container=0;" parent="115" vertex="1">
                    <mxGeometry width="70" height="40" as="geometry"/>
                </mxCell>
                <mxCell id="12" value="&lt;font style=&quot;font-size: 11px;&quot; color=&quot;#000000&quot;&gt;ADC&lt;br&gt;&lt;/font&gt;" style="text;html=1;strokeColor=none;fillColor=none;align=center;verticalAlign=middle;whiteSpace=wrap;rounded=0;shadow=1;container=0;" parent="115" vertex="1">
                    <mxGeometry x="20" y="14" width="30.000000000000004" height="12" as="geometry"/>
                </mxCell>
                <mxCell id="116" value="" style="group" parent="1" vertex="1" connectable="0">
                    <mxGeometry x="320" y="330" width="70" height="40" as="geometry"/>
                </mxCell>
                <mxCell id="7" value="" style="rounded=0;whiteSpace=wrap;html=1;fillColor=#E6E6E6;shadow=0;strokeColor=#6666FF;container=0;" parent="116" vertex="1">
                    <mxGeometry width="70" height="40" as="geometry"/>
                </mxCell>
                <mxCell id="8" value="&lt;font style=&quot;font-size: 11px;&quot; color=&quot;#000000&quot;&gt;DAC&lt;br&gt;&lt;/font&gt;" style="text;html=1;strokeColor=none;fillColor=none;align=center;verticalAlign=middle;whiteSpace=wrap;rounded=0;shadow=1;container=0;" parent="116" vertex="1">
                    <mxGeometry x="17.5" y="10" width="35" height="20" as="geometry"/>
                </mxCell>
                <mxCell id="117" value="" style="group" parent="1" vertex="1" connectable="0">
                    <mxGeometry x="320" y="270" width="70" height="40" as="geometry"/>
                </mxCell>
                <mxCell id="23" value="" style="rounded=0;whiteSpace=wrap;html=1;fillColor=#E6E6E6;shadow=0;strokeColor=#6666FF;container=0;" parent="117" vertex="1">
                    <mxGeometry width="70" height="40" as="geometry"/>
                </mxCell>
                <mxCell id="24" value="&lt;font style=&quot;font-size: 11px;&quot; color=&quot;#000000&quot;&gt;Vref&lt;br&gt;&lt;/font&gt;" style="text;html=1;strokeColor=none;fillColor=none;align=center;verticalAlign=middle;whiteSpace=wrap;rounded=0;shadow=1;container=0;" parent="117" vertex="1">
                    <mxGeometry x="17.5" y="10" width="35" height="20" as="geometry"/>
                </mxCell>
                <mxCell id="118" value="" style="group" parent="1" vertex="1" connectable="0">
                    <mxGeometry x="220" y="320" width="60" height="60" as="geometry"/>
                </mxCell>
                <mxCell id="16" value="" style="rounded=0;whiteSpace=wrap;html=1;fillColor=#E6E6E6;shadow=0;strokeColor=#6666FF;container=0;" parent="118" vertex="1">
                    <mxGeometry width="60" height="60" as="geometry"/>
                </mxCell>
                <mxCell id="17" value="&lt;font style=&quot;font-size: 11px;&quot; color=&quot;#000000&quot;&gt;uC&lt;br&gt;&lt;/font&gt;" style="text;html=1;strokeColor=none;fillColor=none;align=center;verticalAlign=middle;whiteSpace=wrap;rounded=0;shadow=1;container=0;" parent="118" vertex="1">
                    <mxGeometry x="15" y="15" width="30" height="30" as="geometry"/>
                </mxCell>
                <mxCell id="119" value="" style="group" parent="1" vertex="1" connectable="0">
                    <mxGeometry x="220" y="410" width="60" height="40" as="geometry"/>
                </mxCell>
                <mxCell id="96" value="" style="rounded=0;whiteSpace=wrap;html=1;fillColor=#E6E6E6;shadow=0;strokeColor=#6666FF;container=0;" parent="119" vertex="1">
                    <mxGeometry width="60" height="40" as="geometry"/>
                </mxCell>
                <mxCell id="97" value="&lt;font style=&quot;font-size: 11px;&quot; color=&quot;#000000&quot;&gt;RTC&lt;br&gt;&lt;/font&gt;" style="text;html=1;strokeColor=none;fillColor=none;align=center;verticalAlign=middle;whiteSpace=wrap;rounded=0;shadow=1;container=0;" parent="119" vertex="1">
                    <mxGeometry x="17.14285714285711" y="14" width="25.714285714285715" height="12" as="geometry"/>
                </mxCell>
                <mxCell id="120" value="" style="group" parent="1" vertex="1" connectable="0">
                    <mxGeometry x="80" y="160" width="120" height="60" as="geometry"/>
                </mxCell>
                <mxCell id="32" value="" style="rounded=0;whiteSpace=wrap;html=1;fillColor=#E6E6E6;shadow=0;strokeColor=#6666FF;container=0;" parent="120" vertex="1">
                    <mxGeometry width="120" height="60" as="geometry"/>
                </mxCell>
                <mxCell id="33" value="&lt;font style=&quot;font-size: 11px;&quot; color=&quot;#000000&quot;&gt;AC-DC power supply (+12V, +5V, -5V)&lt;br&gt;&lt;/font&gt;" style="text;html=1;strokeColor=none;fillColor=none;align=center;verticalAlign=middle;whiteSpace=wrap;rounded=0;shadow=1;container=0;" parent="120" vertex="1">
                    <mxGeometry x="1.25" y="15" width="117.5" height="30" as="geometry"/>
                </mxCell>
                <mxCell id="136" style="edgeStyle=orthogonalEdgeStyle;html=1;exitX=0.5;exitY=1;exitDx=0;exitDy=0;strokeColor=#000000;entryX=1;entryY=0.25;entryDx=0;entryDy=0;" parent="1" source="37" target="122" edge="1">
                    <mxGeometry relative="1" as="geometry">
                        <mxPoint x="630" y="400" as="targetPoint"/>
                    </mxGeometry>
                </mxCell>
                <mxCell id="145" value="" style="group" parent="1" vertex="1" connectable="0">
                    <mxGeometry x="507.5" y="390" width="112.5" height="40" as="geometry"/>
                </mxCell>
                <mxCell id="122" value="" style="rounded=0;whiteSpace=wrap;html=1;fillColor=#E6E6E6;shadow=0;strokeColor=#6666FF;container=0;" parent="145" vertex="1">
                    <mxGeometry x="22.5" width="90" height="40" as="geometry"/>
                </mxCell>
                <mxCell id="123" value="&lt;font style=&quot;font-size: 11px;&quot; color=&quot;#000000&quot;&gt;Switch&lt;br&gt;&lt;/font&gt;" style="text;html=1;strokeColor=none;fillColor=none;align=center;verticalAlign=middle;whiteSpace=wrap;rounded=0;shadow=1;container=0;" parent="145" vertex="1">
                    <mxGeometry y="10" width="82.5" height="20" as="geometry"/>
                </mxCell>
                <mxCell id="127" value="" style="endArrow=none;html=1;strokeColor=#000000;" parent="145" edge="1">
                    <mxGeometry width="50" height="50" relative="1" as="geometry">
                        <mxPoint x="72.5" y="20" as="sourcePoint"/>
                        <mxPoint x="92.5" y="10" as="targetPoint"/>
                    </mxGeometry>
                </mxCell>
                <mxCell id="128" value="" style="endArrow=none;html=1;strokeColor=#000000;" parent="145" edge="1">
                    <mxGeometry width="50" height="50" relative="1" as="geometry">
                        <mxPoint x="92.5" y="10" as="sourcePoint"/>
                        <mxPoint x="112.5" y="10" as="targetPoint"/>
                    </mxGeometry>
                </mxCell>
                <mxCell id="129" value="" style="endArrow=none;html=1;strokeColor=#000000;startArrow=none;" parent="145" source="132" edge="1">
                    <mxGeometry width="50" height="50" relative="1" as="geometry">
                        <mxPoint x="92.5" y="30" as="sourcePoint"/>
                        <mxPoint x="112.5" y="30" as="targetPoint"/>
                    </mxGeometry>
                </mxCell>
                <mxCell id="130" value="" style="endArrow=none;html=1;strokeColor=#000000;" parent="145" edge="1">
                    <mxGeometry width="50" height="50" relative="1" as="geometry">
                        <mxPoint x="72.5" y="40" as="sourcePoint"/>
                        <mxPoint x="72.5" y="20" as="targetPoint"/>
                    </mxGeometry>
                </mxCell>
                <mxCell id="131" value="" style="shape=waypoint;sketch=0;fillStyle=solid;size=6;pointerEvents=1;points=[];fillColor=none;resizable=0;rotatable=0;perimeter=centerPerimeter;snapToPoint=1;strokeColor=#000000;" parent="145" vertex="1">
                    <mxGeometry x="62.5" y="10" width="20" height="20" as="geometry"/>
                </mxCell>
                <mxCell id="133" value="" style="endArrow=none;html=1;strokeColor=#000000;" parent="145" target="132" edge="1">
                    <mxGeometry width="50" height="50" relative="1" as="geometry">
                        <mxPoint x="92.5" y="30" as="sourcePoint"/>
                        <mxPoint x="112.5" y="30" as="targetPoint"/>
                    </mxGeometry>
                </mxCell>
                <mxCell id="132" value="" style="shape=waypoint;sketch=0;fillStyle=solid;size=6;pointerEvents=1;points=[];fillColor=none;resizable=0;rotatable=0;perimeter=centerPerimeter;snapToPoint=1;strokeColor=#000000;" parent="145" vertex="1">
                    <mxGeometry x="82.5" y="20" width="20" height="20" as="geometry"/>
                </mxCell>
                <mxCell id="134" value="" style="shape=waypoint;sketch=0;fillStyle=solid;size=6;pointerEvents=1;points=[];fillColor=none;resizable=0;rotatable=0;perimeter=centerPerimeter;snapToPoint=1;strokeColor=#000000;" parent="145" vertex="1">
                    <mxGeometry x="82.5" width="20" height="20" as="geometry"/>
                </mxCell>
                <mxCell id="149" style="edgeStyle=orthogonalEdgeStyle;html=1;exitX=0.553;exitY=1.011;exitDx=0;exitDy=0;entryX=1;entryY=0.5;entryDx=0;entryDy=0;strokeColor=#000000;fontColor=#000000;exitPerimeter=0;" parent="1" source="122" target="47" edge="1">
                    <mxGeometry relative="1" as="geometry"/>
                </mxCell>
                <mxCell id="155" value="" style="group" parent="1" vertex="1" connectable="0">
                    <mxGeometry x="420" y="270" width="80" height="40" as="geometry"/>
                </mxCell>
                <mxCell id="156" value="" style="rounded=0;whiteSpace=wrap;html=1;fillColor=#E6E6E6;shadow=0;strokeColor=#6666FF;container=0;" parent="155" vertex="1">
                    <mxGeometry width="80" height="40" as="geometry"/>
                </mxCell>
                <mxCell id="157" value="&lt;font style=&quot;font-size: 11px;&quot; color=&quot;#000000&quot;&gt;Temperature&lt;br&gt;measurement&lt;br&gt;&lt;/font&gt;" style="text;html=1;strokeColor=none;fillColor=none;align=center;verticalAlign=middle;whiteSpace=wrap;rounded=0;shadow=1;container=0;" parent="155" vertex="1">
                    <mxGeometry x="20" y="10" width="40" height="20" as="geometry"/>
                </mxCell>
                <mxCell id="158" value="" style="group" parent="1" vertex="1" connectable="0">
                    <mxGeometry x="510" y="270" width="40" height="40" as="geometry"/>
                </mxCell>
                <mxCell id="90" value="" style="rounded=0;whiteSpace=wrap;html=1;fillColor=#E6E6E6;shadow=0;strokeColor=#6666FF;container=0;" parent="158" vertex="1">
                    <mxGeometry width="40" height="40" as="geometry"/>
                </mxCell>
                <mxCell id="91" value="&lt;font style=&quot;font-size: 11px;&quot; color=&quot;#000000&quot;&gt;Fan&lt;br&gt;&lt;/font&gt;" style="text;html=1;strokeColor=none;fillColor=none;align=center;verticalAlign=middle;whiteSpace=wrap;rounded=0;shadow=1;container=0;" parent="158" vertex="1">
                    <mxGeometry x="7.5" y="10" width="25" height="20" as="geometry"/>
                </mxCell>
                <mxCell id="159" style="edgeStyle=orthogonalEdgeStyle;html=1;entryX=0.5;entryY=1;entryDx=0;entryDy=0;strokeColor=#000000;exitX=0.271;exitY=-0.007;exitDx=0;exitDy=0;exitPerimeter=0;" parent="1" source="3" target="156" edge="1">
                    <mxGeometry relative="1" as="geometry">
                        <mxPoint x="455" y="330" as="sourcePoint"/>
                        <Array as="points">
                            <mxPoint x="460" y="330"/>
                        </Array>
                    </mxGeometry>
                </mxCell>
                <mxCell id="160" style="edgeStyle=orthogonalEdgeStyle;html=1;strokeColor=#000000;entryX=0.836;entryY=0.006;entryDx=0;entryDy=0;entryPerimeter=0;" parent="1" source="156" target="16" edge="1">
                    <mxGeometry relative="1" as="geometry">
                        <Array as="points">
                            <mxPoint x="460" y="240"/>
                            <mxPoint x="270" y="240"/>
                        </Array>
                        <mxPoint x="280" y="310" as="targetPoint"/>
                    </mxGeometry>
                </mxCell>
                <mxCell id="162" value="" style="group" vertex="1" connectable="0" parent="1">
                    <mxGeometry x="80" y="330" width="80" height="40" as="geometry"/>
                </mxCell>
                <mxCell id="163" value="" style="rounded=0;whiteSpace=wrap;html=1;fillColor=#E6E6E6;shadow=0;strokeColor=#6666FF;container=0;" vertex="1" parent="162">
                    <mxGeometry width="80" height="40" as="geometry"/>
                </mxCell>
                <mxCell id="164" value="&lt;font style=&quot;font-size: 11px;&quot; color=&quot;#000000&quot;&gt;USB serial port&lt;br&gt;&lt;/font&gt;" style="text;html=1;strokeColor=none;fillColor=none;align=center;verticalAlign=middle;whiteSpace=wrap;rounded=0;shadow=1;container=0;" vertex="1" parent="162">
                    <mxGeometry x="11.43" y="14" width="57.14" height="12" as="geometry"/>
                </mxCell>
                <mxCell id="165" style="html=1;exitX=1;exitY=0.5;exitDx=0;exitDy=0;entryX=0;entryY=0.5;entryDx=0;entryDy=0;strokeColor=#000000;" edge="1" parent="1" source="163" target="16">
                    <mxGeometry relative="1" as="geometry"/>
                </mxCell>
                <mxCell id="166" style="html=1;exitX=1;exitY=0.5;exitDx=0;exitDy=0;entryX=0;entryY=0.5;entryDx=0;entryDy=0;strokeColor=#000000;" edge="1" parent="1">
                    <mxGeometry relative="1" as="geometry">
                        <mxPoint x="220" y="349.9" as="sourcePoint"/>
                        <mxPoint x="160" y="349.9" as="targetPoint"/>
                    </mxGeometry>
                </mxCell>
                <mxCell id="167" style="edgeStyle=orthogonalEdgeStyle;html=1;entryX=0.5;entryY=1;entryDx=0;entryDy=0;strokeColor=#000000;fontSize=11;fontColor=#000000;fillColor=#000000;" edge="1" parent="1">
                    <mxGeometry relative="1" as="geometry">
                        <mxPoint x="249.89999999999998" y="380" as="sourcePoint"/>
                        <mxPoint x="249.89999999999998" y="410" as="targetPoint"/>
                    </mxGeometry>
                </mxCell>
                <mxCell id="168" style="edgeStyle=orthogonalEdgeStyle;html=1;strokeColor=#000000;fontSize=11;fontColor=#000000;fillColor=#000000;entryX=0.999;entryY=0.825;entryDx=0;entryDy=0;entryPerimeter=0;" edge="1" parent="1">
                    <mxGeometry relative="1" as="geometry">
                        <mxPoint x="320.06" y="410" as="targetPoint"/>
                        <Array as="points">
                            <mxPoint x="280.06" y="370"/>
                            <mxPoint x="300.06" y="370"/>
                            <mxPoint x="300.06" y="410"/>
                        </Array>
                        <mxPoint x="279.99999999999983" y="369.5" as="sourcePoint"/>
                    </mxGeometry>
                </mxCell>
            </root>
        </mxGraphModel>
    </diagram>
</mxfile>